# xmcd
#
# Track frame offsets: 
#        150
#        18437
#        36692
#        53420
#        69842
#        84855
#        102655
#        122525
#        137765
#        156087
#        174287
#        189422
#        203565
#        223380
#        239865
#        252837
#
# Disc length: 3598 seconds
#
# Revision: 13
# Processed by: cddbd v1.5.2PL0 Copyright (c) Steve Scherf et al.
# Submitted via: ExactAudioCopyFreeDBPlugin 1.0
#
DISCID=de0e0c10
DTITLE=Darryl Worley - Have You Forgotten?
DYEAR=2003
DGENRE=Country
TTITLE0=Have You Forgotten?
TTITLE1=I Will Hold My Ground
TTITLE2=POW 369
TTITLE3=I Need a Breather
TTITLE4=Back Where I Belong
TTITLE5=Those Less Fortunate Than I
TTITLE6=Shiloh
TTITLE7=Tennessee River Run
TTITLE8=The Least That You Can Do
TTITLE9=I Miss My Friend
TTITLE10=Family Tree
TTITLE11=A Good Day to Run
TTITLE12=Second Wind
TTITLE13=When You Need My Love
TTITLE14=Too Many Pockets
TTITLE15=The Way Things Are Goin'
EXTD=YEAR: 2003
EXTT0=
EXTT1=
EXTT2=
EXTT3=
EXTT4=
EXTT5=
EXTT6=
EXTT7=
EXTT8=
EXTT9=
EXTT10=
EXTT11=
EXTT12=
EXTT13=
EXTT14=
EXTT15=
PLAYORDER=
